{"title":"Sweet Sinner - My Mother's Best Friend 2 (2010)","uid":6714012,"size":1901888578,"categoryP":"porn","categoryS":"movies","magnet":"?xt=urn:btih:5c193706f636bd4018c558c0c3f92b7b7b754c36&amp;dn=Sweet+Sinner+-+My+Mother%5C%27s+Best+Friend+2+%282010%29&amp;tr=udp%3A%2F%2Ftracker.openbittorrent.com%3A80&amp;tr=udp%3A%2F%2Fopen.demonii.com%3A1337&amp;tr=udp%3A%2F%2Ftracker.coppersurfer.tk%3A6969&amp;tr=udp%3A%2F%2Fexodus.desync.com%3A6969","seeders":3,"leechers":3,"uploader":"silviuss","files":1,"time":1317430524,"description":"Sweet Sinner - My Mother's Best Friend 2 (2010)\n\nCover: &lt;a href=&quot;\nhttp://imagebb.org/view.php?filename=226DVD2SWS_10058.jpg&quot; rel=&quot;nofollow&quot; target=&quot;_NEW&quot;&gt;\nhttp://imagebb.org/view.php?filename=226DVD2SWS_10058.jpg&lt;/a&gt;\n\nPreview: &lt;a href=&quot;\nhttp://imagebb.org/view.php?filename=740Sweet_Sinner_My_Mother.jpg&quot; rel=&quot;nofollow&quot; target=&quot;_NEW&quot;&gt;\nhttp://imagebb.org/view.php?filename=740Sweet_Sinner_My_Mother.jpg&lt;/a&gt;\n\nInfo:\nFormat                           : Windows Media\nFile size                        : 1.77 GiB\nDuration                         : 1h 59mn\nOverall bit rate mode            : Constant\nOverall bit rate                 : 2 116 Kbps\nMaximum Overall bit rate         : 4 162 Kbps\nEncoded date                     : UTC 2011-09-27 20:00:56.573\n\nVideo\nID                               : 2\nFormat                           : WMV1\nCodec ID                         : WMV1\nCodec ID/Info                    : Windows Media Video 7\nDescription of the codec         : Windows Media Video V7\nDuration                         : 1h 59mn\nBit rate mode                    : Constant\nBit rate                         : 4 000 Kbps\nWidth                            : 848 pixels\nHeight                           : 476 pixels\nDisplay aspect ratio             : 16:9\nFrame rate                       : 29.970 fps\nBit depth                        : 8 bits\nBits/(Pixel*Frame)               : 0.331\nStream size                      : 3.35 GiB\n\nAudio\nID                               : 1\nFormat                           : WMA\nFormat profile                   : Pro\nCodec ID                         : 162\nCodec ID/Info                    : Windows Media Audio\nDescription of the codec         : Windows Media Audio 10 Professional - 128 kbps, 44 kHz, 2 channel 16 bit 1-pass CBR\nDuration                         : 1h 59mn\nBit rate mode                    : Constant\nBit rate                         : 128 Kbps\nChannel(s)                       : 2 channels\nSampling rate                    : 44.1 KHz\nBit depth                        : 16 bits\nStream size                      : 110 MiB (6%)\n\n","torrent":{"xt":"urn:btih:5c193706f636bd4018c558c0c3f92b7b7b754c36","amp;dn":"Sweet+Sinner+-+My+Mother%5C%27s+Best+Friend+2+%282010%29","amp;tr":["udp%3A%2F%2Ftracker.openbittorrent.com%3A80","udp%3A%2F%2Fopen.demonii.com%3A1337","udp%3A%2F%2Ftracker.coppersurfer.tk%3A6969","udp%3A%2F%2Fexodus.desync.com%3A6969"],"infoHash":"5c193706f636bd4018c558c0c3f92b7b7b754c36","infoHashBuffer":{"type":"Buffer","data":[92,25,55,6,246,54,189,64,24,197,88,192,195,249,43,123,123,117,76,54]},"announce":[],"urlList":[]}}